<svg width="366" height="151" viewBox="0 0 366 151" fill="none" xmlns="http://www.w3.org/2000/svg">
<g filter="url(#filter0_i_154_359)">
<path d="M63.3874 56.8895C69.451 58.1818 74.3218 61.2136 77.9997 65.985C81.6776 70.6569 83.5166 76.0247 83.5166 82.0883C83.5166 90.8358 80.4351 97.7941 74.272 102.963C68.2084 108.033 59.7094 110.567 48.775 110.567H0.0175781V5.89549H47.1349C57.7711 5.89549 66.0713 8.33088 72.0355 13.2017C78.0991 18.0724 81.1309 24.6828 81.1309 33.0327C81.1309 39.1957 79.4907 44.315 76.2104 48.3905C73.0295 52.4661 68.7551 55.2991 63.3874 56.8895ZM25.5146 48.2414H42.2144C46.3893 48.2414 49.5703 47.3468 51.7571 45.5575C54.0434 43.6689 55.1866 40.9353 55.1866 37.3567C55.1866 33.7782 54.0434 31.0446 51.7571 29.1559C49.5703 27.2673 46.3893 26.3229 42.2144 26.3229H25.5146V48.2414ZM44.3019 89.9909C48.5762 89.9909 51.8565 89.0466 54.1428 87.1579C56.5285 85.1698 57.7214 82.3368 57.7214 78.6589C57.7214 74.981 56.4788 72.0983 53.9937 70.0108C51.608 67.9233 48.278 66.8796 44.0037 66.8796H25.5146V89.9909H44.3019Z" fill="white"/>
<path d="M123.802 0.229492V110.567H98.3048V0.229492H123.802Z" fill="white"/>
<path d="M137.21 68.818C137.21 60.2692 138.8 52.7643 141.981 46.303C145.261 39.8418 149.685 34.8716 155.251 31.3925C160.818 27.9134 167.031 26.1738 173.89 26.1738C179.754 26.1738 184.874 27.3667 189.247 29.7523C193.721 32.138 197.15 35.2692 199.536 39.146V27.3667H225.033V110.567H199.536V98.7881C197.051 102.665 193.571 105.796 189.098 108.182C184.725 110.567 179.605 111.76 173.74 111.76C166.981 111.76 160.818 110.021 155.251 106.542C149.685 102.963 145.261 97.9432 141.981 91.482C138.8 84.9213 137.21 77.3667 137.21 68.818ZM199.536 68.9671C199.536 62.6052 197.746 57.5854 194.168 53.9074C190.689 50.2295 186.414 48.3905 181.345 48.3905C176.275 48.3905 171.951 50.2295 168.373 53.9074C164.894 57.486 163.154 62.4561 163.154 68.818C163.154 75.1798 164.894 80.2494 168.373 84.0267C171.951 87.7046 176.275 89.5436 181.345 89.5436C186.414 89.5436 190.689 87.7046 194.168 84.0267C197.746 80.3488 199.536 75.3289 199.536 68.9671Z" fill="white"/>
<path d="M238.409 69.1162C238.409 60.8657 240.099 53.5098 243.479 47.0486C246.958 40.5873 251.58 35.5675 257.345 31.9889C263.21 28.311 269.572 26.472 276.431 26.472C281.699 26.472 286.421 27.4164 290.596 29.305C294.771 31.0943 298.151 33.6291 300.735 36.9094V27.3667H326.232V150.229H300.735V100.13C297.852 103.609 294.324 106.393 290.149 108.48C286.073 110.567 281.401 111.611 276.133 111.611C269.373 111.611 263.111 109.822 257.345 106.243C251.58 102.665 246.958 97.645 243.479 91.1838C240.099 84.7225 238.409 77.3667 238.409 69.1162ZM300.735 68.9671C300.735 64.4939 299.841 60.7663 298.051 57.7842C296.361 54.7027 294.125 52.4164 291.342 50.9253C288.558 49.3349 285.626 48.5396 282.544 48.5396C279.562 48.5396 276.679 49.3349 273.896 50.9253C271.113 52.4164 268.827 54.7027 267.037 57.7842C265.248 60.8657 264.353 64.643 264.353 69.1162C264.353 73.5893 265.248 77.3667 267.037 80.4482C268.827 83.4303 271.113 85.7166 273.896 87.307C276.679 88.7981 279.562 89.5436 282.544 89.5436C285.526 89.5436 288.409 88.7981 291.192 87.307C294.075 85.7166 296.361 83.3806 298.051 80.2991C299.841 77.2176 300.735 73.4402 300.735 68.9671Z" fill="white"/>
<path d="M340.885 85.5815H365.982V109.581H340.885V85.5815Z" fill="white"/>
</g>
<defs>
<filter id="filter0_i_154_359" x="0.0175781" y="0.229492" width="365.965" height="153.529" filterUnits="userSpaceOnUse" color-interpolation-filters="sRGB">
<feFlood flood-opacity="0" result="BackgroundImageFix"/>
<feBlend mode="normal" in="SourceGraphic" in2="BackgroundImageFix" result="shape"/>
<feColorMatrix in="SourceAlpha" type="matrix" values="0 0 0 0 0 0 0 0 0 0 0 0 0 0 0 0 0 0 127 0" result="hardAlpha"/>
<feOffset dy="3.52941"/>
<feGaussianBlur stdDeviation="1.76471"/>
<feComposite in2="hardAlpha" operator="arithmetic" k2="-1" k3="1"/>
<feColorMatrix type="matrix" values="0 0 0 0 0 0 0 0 0 0 0 0 0 0 0 0 0 0 0.25 0"/>
<feBlend mode="normal" in2="shape" result="effect1_innerShadow_154_359"/>
</filter>
</defs>
</svg>
